<?xml version="1.0" encoding="iso-8859-1"?>
<!-- Generator: Adobe Illustrator 19.0.0, SVG Export Plug-In . SVG Version: 6.00 Build 0)  -->
<svg version="1.1" id="Capa_1" xmlns="http://www.w3.org/2000/svg" xmlns:xlink="http://www.w3.org/1999/xlink" x="0px" y="0px"
	 viewBox="0 0 512 512" style="enable-background:new 0 0 512 512;" xml:space="preserve">
<path style="fill:#E83628;" d="M256,0C114.844,0,0,114.844,0,256s114.844,256,256,256s256-114.844,256-256S397.156,0,256,0z"/>
<path style="fill:#E1BBA5;" d="M256,469.333c-117.633,0-213.333-95.701-213.333-213.333S138.367,42.667,256,42.667
	S469.333,138.367,469.333,256S373.633,469.333,256,469.333z"/>
<path style="fill:#303C42;" d="M378.167,338.938l-79.5-139.104V128c5.896,0,10.667-4.771,10.667-10.667s-4.771-10.667-10.667-10.667
	h-85.333c-5.896,0-10.667,4.771-10.667,10.667S207.438,128,213.333,128v71.833l-79.479,139.094
	c-3.833,6.688-5.854,14.302-5.854,22.031c0,24.469,19.917,44.375,44.375,44.375h167.25c24.458,0,44.375-19.906,44.375-44.385
	C384,353.219,381.979,345.615,378.167,338.938z"/>
<path style="fill:#DDEEFD;" d="M233.271,207.958c0.917-1.615,1.396-3.438,1.396-5.292V128h42.667v74.667
	c0,1.854,0.479,3.677,1.396,5.292L306.188,256h-100.37L233.271,207.958z"/>
<path style="fill:#9E3D96;" d="M339.625,384h-167.25c-12.708,0-23.042-10.344-23.042-23.052c0-4.01,1.042-7.958,3.042-11.427
	l41.251-72.188H318.38l41.266,72.198c1.979,3.458,3.021,7.406,3.021,11.427C362.667,373.667,352.333,384,339.625,384z"/>
<path style="opacity:0.2;fill:#FFFFFF;enable-background:new    ;" d="M241.066,202.667V128h-6.4v74.667
	c0,1.854-0.479,3.677-1.396,5.292L205.818,256h15.055l19.217-48.042C240.732,206.344,241.066,204.521,241.066,202.667z"/>
<path style="opacity:0.1;enable-background:new    ;" d="M278.729,207.958c-0.917-1.615-1.396-3.438-1.396-5.292V128h-6.4v74.667
	c0,1.854,0.335,3.677,0.977,5.292L291.132,256h15.056L278.729,207.958z"/>
<path style="opacity:0.2;fill:#FFFFFF;enable-background:new    ;" d="M181.333,360.948c0-4.01,0.729-7.958,2.129-11.427
	l28.876-72.188h-18.712l-41.251,72.188c-2,3.469-3.042,7.417-3.042,11.427c0,12.708,10.333,23.052,23.042,23.052h25.087
	C188.566,384,181.333,373.656,181.333,360.948z"/>
<path style="opacity:0.1;enable-background:new    ;" d="M359.646,349.531l-41.266-72.198h-18.714l28.885,72.198
	c1.385,3.458,2.115,7.406,2.115,11.427c0,12.708-7.233,23.042-16.129,23.042h25.087c12.708,0,23.042-10.333,23.042-23.042
	C362.667,356.938,361.625,352.99,359.646,349.531z"/>
<rect x="234.651" y="14.637" transform="matrix(-0.7071 0.7071 -0.7071 -0.7071 618.0074 255.9979)" style="fill:#E83628;" width="42.667" height="482.712"/>
<linearGradient id="SVGID_1_" gradientUnits="userSpaceOnUse" x1="-45.5784" y1="639.555" x2="-23.8278" y2="629.4138" gradientTransform="matrix(21.3333 0 0 -21.3333 996.3334 13791.667)">
	<stop  offset="0" style="stop-color:#FFFFFF;stop-opacity:0.2"/>
	<stop  offset="1" style="stop-color:#FFFFFF;stop-opacity:0"/>
</linearGradient>
<path style="fill:url(#SVGID_1_);" d="M256,0C114.844,0,0,114.844,0,256s114.844,256,256,256s256-114.844,256-256S397.156,0,256,0z"
	/>
<g>
</g>
<g>
</g>
<g>
</g>
<g>
</g>
<g>
</g>
<g>
</g>
<g>
</g>
<g>
</g>
<g>
</g>
<g>
</g>
<g>
</g>
<g>
</g>
<g>
</g>
<g>
</g>
<g>
</g>
</svg>
