<?xml version="1.0" encoding="utf-8"?>
<!-- Generator: Adobe Illustrator 22.1.0, SVG Export Plug-In . SVG Version: 6.00 Build 0)  -->
<svg version="1.1" xmlns="http://www.w3.org/2000/svg" xmlns:xlink="http://www.w3.org/1999/xlink" x="0px" y="0px"
	 viewBox="0 0 679 459" enable-background="new 0 0 679 459" xml:space="preserve">
<g id="Grid">
</g>
<g id="Fonts">
</g>
<g id="Logo">
	<g id="Logo_2">
	</g>
	<g id="Logo_1">
		<g>

			<!-- Center logo begin -->
			<path fill="#ccc" d="M403.39,175.841c1.481-3.879,1.712-9.338-2.506-11.951c-0.929-0.612-2.073-0.894-3.18-1.166
				c-1.79-0.441-3.482-0.858-4.282-2.594c-2.062-3.328-6.13-4.027-9.18-4.027c-0.63,0-1.28,0.031-1.923,0.091
				c-4.563,0.315-8.561,2.786-12.606,5.519c-13.301,10.205-23.422,25.565-28.529,43.285c-8.63-7.816-17.114-16.111-25.321-24.136
				c-3.029-2.961-6.057-5.922-9.098-8.866c-0.032-0.031-0.072-0.053-0.116-0.064c-0.262-0.062-0.538-0.095-0.821-0.095
				c-1.363,0-2.725,0.713-4.042,1.403c-0.479,0.251-0.935,0.489-1.375,0.686c-1.54-0.931-2.99-0.914-4.293,0.044
				c-2.92-1.711-4.401-4.605-5.968-7.665c-1.483-2.896-3.017-5.892-5.836-7.729c-1.232-1.331-3.298-2.192-5.263-2.192
				c-2.419,0-4.065,1.314-4.404,3.542c-0.287,7.093,7.139,11.5,11.128,13.867c0.018,0.011,0.037,0.019,0.058,0.025
				c2.023,0.591,5.534,2.078,5.861,3.908c0.143,0.802-0.348,1.627-1.461,2.453c-0.104,0.077-0.132,0.22-0.065,0.33
				c0.906,1.495,0.395,3.063-0.147,4.724c-0.507,1.556-1.031,3.164-0.467,4.861c0.008,0.024,0.02,0.047,0.034,0.067
				c1.738,2.414,3.979,4.79,7.03,7.449c-5.563,1.083-9.908,4.81-12.272,10.546c-3.196,7.753-2.188,17.638,2.463,24.054
				c3.624,4.231,9.05,6.202,17.078,6.202c2.14,0,4.249-0.134,6.097-0.281c-6.096,5.619-12.306,11.471-15.165,19.343
				c-1.657,2.732-4.135,3.701-6.759,4.727c-1.446,0.565-2.941,1.15-4.331,2.047c-0.897,0.501-1.45,1.292-1.6,2.287
				c-0.253,1.68,0.683,3.545,1.659,4.567c1.126,1.186,2.779,1.84,4.655,1.84c2.692-0.001,5.32-1.319,6.538-3.281
				c0.651-1.05,1.199-2.758,0.146-4.965c0.86-2.397,3.004-3.093,5.273-3.828c1.838-0.597,3.74-1.214,5.009-2.764
				c4.898-4.775,9.376-8.971,13.673-12.812c1.097,7.645-0.851,18.13-7.783,23.581c-0.071,0.056-0.106,0.145-0.093,0.232
				c0.013,0.089,0.073,0.164,0.156,0.196c0.529,0.207,1.073,0.311,1.616,0.311c2.716,0,5.027-2.517,7.065-4.736
				c0.483-0.526,0.942-1.026,1.38-1.462c0.01,0.01,0.018,0.02,0.024,0.03c0.224,0.346-0.097,1.519-0.355,2.462
				c-0.329,1.2-0.613,2.237-0.261,2.697c0.081,0.107,0.233,0.232,0.499,0.232c0.313,0,0.723-0.174,1.323-0.573
				c5.905-5.549,6.253-13.165,6.589-20.529c0.25-5.463,0.507-11.106,3.021-15.901c5.342,4.482,10.493,8.944,14.871,14.093
				c0.495,2.592,0.695,5.309,0.889,7.936c0.364,4.929,0.74,10.023,3.056,14.609c1.69,3.388,3.685,5.104,5.977,5.104
				c0.067-0.001,0.131-0.028,0.178-0.076c0.046-0.049,0.071-0.113,0.07-0.181c-0.025-0.967-0.336-1.965-0.638-2.931
				c-0.399-1.279-0.81-2.598-0.603-3.921c1.646,2.07,4.101,4.336,6.966,4.336c1.139,0,2.256-0.368,3.319-1.093
				c0.072-0.049,0.113-0.131,0.109-0.218c-0.004-0.086-0.052-0.164-0.127-0.207c-5.314-3.004-7.789-9.244-8.938-14.157
				c1.325,0.804,2.395,1.967,3.432,3.096c1.109,1.206,2.255,2.453,3.727,3.297c0.067,0.039,0.148,0.044,0.22,0.015
				c1.115-0.461,2.094-1.211,3.04-1.937c1.105-0.847,2.151-1.648,3.384-2.016c1.092,1.111,2.54,1.162,3.775,0.144
				c3.095,2.199,4.787,5.637,6.423,8.963c1.908,3.876,3.88,7.885,8.067,9.923c0.798,0.434,1.652,0.653,2.539,0.653
				c2.094,0,4.205-1.268,5.377-3.231c1.083-1.812,1.163-3.857,0.213-5.621c-2.36-3.838-6.195-6.053-9.905-8.194
				c-3.016-1.742-6.133-3.542-8.428-6.205c0.634-1.09,0.314-2.323-0.892-3.434c0.298-0.512,0.743-1.062,1.212-1.644
				c1.061-1.313,2.158-2.672,1.987-4.043c-0.084-0.674-0.481-1.285-1.18-1.817c-0.308-0.382-0.794-0.79-1.307-1.222
				c-0.785-0.659-1.761-1.48-1.645-1.948c0.06-0.244,0.471-0.461,1.194-0.621c11.747-4.539,15.45-19.107,11.547-29.886
				c-0.07-3.168-2.279-5.165-4.415-7.097c-1.049-0.949-2.044-1.849-2.757-2.855c0.47-0.333,0.944-0.668,1.421-1.004
				C392.47,192.762,401.591,186.325,403.39,175.841z M300.331,251.024l0.024-0.03c0.03,0.254,0.071,0.553,0.117,0.885
				c0.273,1.988,0.783,5.689-0.295,6.926c-0.243,0.278-0.553,0.414-0.947,0.414h0c-0.449,0-1.005-0.178-1.655-0.529
				C295.892,256.434,298.56,253.182,300.331,251.024z M292.861,262.131c-0.058-0.81,1.42-1.818,2.303-2.421l0.229-0.158
				c0.621,0.025,0.943,0.208,0.959,0.543c0.043,0.933-1.767,2.701-2.712,2.883C293.145,262.722,292.883,262.438,292.861,262.131z
				 M290.137,263.2c1.6,0,3.496,0.838,3.88,2.682c0.277,1.22,0.017,2.373-0.753,3.337c-1.059,1.326-3.004,2.183-4.958,2.183h0
				c-2.248,0-3.91-1.112-4.45-2.984c-0.264-0.79-0.193-1.542,0.211-2.237c0.835-1.436,2.974-2.428,4.75-2.78
				C289.229,263.268,289.673,263.2,290.137,263.2z M307.088,253.537c-0.593,1.452-1.935,2.52-3.232,3.553
				c-0.458,0.365-0.929,0.739-1.364,1.129c-1.391-6.597-0.29-11.367,3.274-14.188c0.848,1.003,0.899,3.179,0.948,5.287
				C306.749,250.797,306.785,252.325,307.088,253.537z M311.307,238.867c0.882,1.486,1.078,4.088,1.268,6.607
				c0.088,1.171,0.171,2.279,0.321,3.269c-0.23,0.222-0.461,0.45-0.694,0.679c-1.235,1.212-2.508,2.462-3.952,3.334
				c-0.022-1.145-0.152-2.334-0.279-3.489C307.511,245.075,307.077,241.112,311.307,238.867z M313.548,237.584
				c0.499-0.672,1.358-1.03,2.625-1.094c1.293,0.326,1.342,2.13,1.395,4.039c0.033,1.225,0.068,2.489,0.455,3.415
				c-0.337,0.323-0.667,0.661-0.997,1c-0.797,0.818-1.619,1.662-2.565,2.279c-0.095-0.965-0.378-2.078-0.675-3.247
				C313.162,241.518,312.516,238.976,313.548,237.584z M292.283,180.88c0.37-2.043,4.052-4.698,5.57-5.786l0.588-0.111
				C296.53,176.972,294.3,179.046,292.283,180.88z M375.75,197.135c9.52-7.175,16.087-13.892,20.64-21.108
				c2.046-3.123,2.719-7.14,1.87-11.082c1.66,0.478,2.844,1.411,3.522,2.776c1.875,3.776-0.461,9.9-1.553,12.357
				c-3.395,7.626-10.525,12.507-17.42,17.228c-0.563,0.385-1.123,0.769-1.677,1.151c-1.398-0.113-2.857-0.558-4.269-0.989
				C376.488,197.355,376.116,197.241,375.75,197.135z M354.665,263.231c-0.071,0.043-0.116,0.12-0.12,0.203l-0.011,0.285
				c-0.092,2.439-0.187,4.951,0.609,7.318c-4.385-3.356-5.238-9.688-5.486-16.061c0.026-8.718-1.676-20.947-9.819-30.248
				c6.8,2.25,11.724,9.404,14.636,21.237c0.257,9.398,3.414,17.706,8.899,23.448c-0.317,0.079-0.626,0.12-0.92,0.12h-0.001
				c-1.914-0.001-3.225-1.698-4.494-3.339c-0.922-1.194-1.876-2.429-3.059-2.978C354.824,263.182,354.736,263.188,354.665,263.231z
				 M322.863,215.862c-1.93,0-3.883-0.057-5.617-0.108c-1.351-1.801-3.055-3.288-4.704-4.727c-1.398-1.22-2.839-2.477-4.055-3.92
				c7.715,1.435,14.68,4.368,20.223,8.518C327.01,215.784,325.089,215.862,322.863,215.862z M311.206,211.699
				c2.489,1.923,4.839,3.74,4.394,6.457c-0.014,0.083,0.015,0.168,0.077,0.224c1.994,1.838,3.962,4.027,6.01,6.686l-0.369,0.162
				c-6.125,2.692-12.459,5.477-19.118,5.476c-1.187,0-2.365-0.091-3.499-0.27c-4.23-0.716-7.417-3.044-8.515-6.189
				c-1.192-6.233,1.081-13.082,5.793-17.475c0.768-0.038,1.561-0.119,2.399-0.205c1.169-0.119,2.377-0.243,3.545-0.243
				c2.811,0,4.644,0.735,5.945,2.385C308.729,209.785,309.989,210.758,311.206,211.699z M332.305,220.08
				c-2.492,1.411-5.244,2.815-8.641,4.407c-0.937-0.888-1.825-1.879-2.686-2.839c-1.11-1.239-2.258-2.519-3.52-3.6
				c-0.27-0.311-0.236-0.417-0.235-0.418c0.07-0.165,0.88-0.205,1.269-0.224c0.447-0.022,0.87-0.042,1.151-0.147
				c0.755-0.1,1.56-0.149,2.462-0.149c1.162,0,2.347,0.081,3.494,0.161c1.155,0.08,2.351,0.162,3.53,0.162
				c0.359,0,0.718-0.007,1.118-0.03c0.646-0.143,1.258,0.115,1.678,0.7C332.34,218.679,332.484,219.445,332.305,220.08z
				 M333.717,214.685c0.114,0.539-0.547,1.337-0.92,1.748c-10.9-7.821-21.619-11.787-31.862-11.787
				c-0.661,0-1.329,0.017-2.004,0.053c-8.092,1.059-10.764,10.86-10.585,17.165c-0.175,2.354,0.615,4.551,2.286,6.351
				c2.307,2.485,6.235,4.09,10.008,4.089l0.254-0.002c9.374-0.12,18.004-4.148,26.35-8.043c1.837-0.857,3.734-1.743,5.588-2.561
				c0.589,0.398,0.887,0.946,0.843,1.556c-0.056,0.777-0.643,1.513-1.496,1.876c-0.027,0.012-0.052,0.028-0.074,0.048
				c-7.934,7.514-17.452,11.652-26.801,11.652c-0.681,0-1.369-0.022-2.083-0.066c-0.56,0.049-1.133,0.074-1.703,0.074
				c-5.403,0-12.686-2.373-15.435-9.072c-3.111-6.524-2.714-15.669,0.944-21.745c1.781-2.958,5.154-6.535,11.114-6.793
				c12.278,1.744,23.134,7.801,35.073,14.963C333.509,214.318,333.673,214.479,333.717,214.685z M396.018,172.983
				c-4.478,8.359-11.803,15.995-23.052,24.026c-3.146,0.648-6.268,1.596-9.286,2.513c-1.879,0.57-3.815,1.158-5.749,1.671
				c5.556-6.368,11.648-12.41,17.545-18.259c6.18-6.129,12.569-12.466,18.336-19.173l0.043-0.001c1.028,0,1.815,0.411,2.34,1.222
				C397.494,166.991,396.91,170.997,396.018,172.983z M355.086,218.078c-0.689,0.109-1.403,0.244-2.153,0.385
				c-1.955,0.369-3.975,0.749-5.905,0.749h0c-1.935-0.001-3.475-0.396-4.699-1.208c1.132-1.695,3.521-2.647,5.638-3.491
				c0.647-0.258,1.259-0.501,1.817-0.755c0.254-0.094,0.516-0.142,0.777-0.142C352.605,213.617,354.425,216.497,355.086,218.078z
				 M351,220.282c0.814,0,1.744-0.033,2.508-0.27c3.488,0.888,6.158,3.861,8.74,6.738c1.148,1.279,2.329,2.594,3.574,3.714
				c-7.197-1.528-13.695-5.725-19.161-9.717c0.565-0.394,1.498-0.481,2.701-0.481c0.266,0,0.536,0.004,0.807,0.008
				C350.447,220.278,350.725,220.282,351,220.282z M354.477,214.28c-0.512-0.512-1-1-1.388-1.509l0.651-0.214
				c5.404-1.776,10.991-3.612,16.825-3.892c5.324-1.045,12.83,1.161,12.952,7.44c0,0.021,0.003,0.042,0.009,0.063
				c1.01,3.586,0.169,7.633-2.249,10.825c-2.304,3.04-5.606,4.786-9.06,4.785c-0.729,0-1.467-0.078-2.194-0.233
				c-2.771-1.817-5.117-4.259-7.387-6.621c-1.815-1.89-3.691-3.842-5.79-5.487C357.414,217.215,355.856,215.658,354.477,214.28z
				 M373.538,182.617c-5.329,5.197-10.839,10.571-15.798,16.317c-2.138,2.771-5.219,4.472-8.198,6.118
				c-0.455,0.251-0.908,0.501-1.359,0.755c7.794-20.9,21.972-36.722,38.938-43.452c0.998-0.207,1.857-0.312,2.554-0.312
				c0.915,0,1.556,0.184,1.851,0.533c0.182,0.214,0.247,0.498,0.198,0.866C386.17,170.298,379.749,176.561,373.538,182.617z
				 M383.387,162.054c-20.253,9.484-31.994,30.222-38.283,45.98c-0.13,0.073-0.271,0.109-0.422,0.109
				c-0.386,0-0.835-0.237-1.231-0.652c-0.479-0.501-0.775-1.147-0.761-1.597c3.812-15.343,13.001-29.933,25.866-41.075
				c4.494-3.577,8.971-5.859,13.288-6.781c0.764-0.101,1.522-0.151,2.255-0.151c2.051,0,4.806,0.403,6.64,2.251
				C387.638,160.219,385.284,160.836,383.387,162.054z M340.659,212.09c-0.435,0.331-0.848,0.645-1.158,0.941
				c-1.371-0.532-2.802-0.347-4.14,0.53c-1.255-0.705-2.51-1.419-3.766-2.134c-9.758-5.551-19.849-11.292-31.081-13.546
				c-3.406-0.881-5.677-3.73-7.873-6.484c-0.569-0.714-1.108-1.39-1.668-2.037c0.127-8.742,9.767-13.954,13.927-15.797
				c0.168-0.082,0.333-0.122,0.505-0.122c0.624,0,1.236,0.549,1.727,0.99l0.045,0.04c6.006,5.537,11.941,11.352,17.681,16.976
				c5.688,5.573,11.57,11.336,17.529,16.835c0.433,0.364,0.639,0.727,0.63,1.109C342.994,210.313,341.699,211.298,340.659,212.09z
				 M341.549,223.118c0.24-0.645,0.508-1.291,0.768-1.917c0.127-0.308,0.255-0.616,0.38-0.924
				c9.138,6.084,18.214,11.616,28.605,12.847c0.295,0.021,0.587,0.031,0.878,0.031h0.001c3.62,0,7.149-1.646,9.684-4.515
				c2.605-2.949,3.838-6.787,3.383-10.533c0.414-2.577-0.282-5.016-2.013-7.055c-2.144-2.525-5.643-4.094-9.129-4.094
				c-0.319,0-0.638,0.014-0.953,0.04c-11.153,0.877-21.925,3.95-31.165,8.891c-0.495-0.473-0.738-1.046-0.673-1.595
				c0.066-0.559,0.448-1.04,1.075-1.356c0.03-0.015,0.057-0.037,0.079-0.062c6.755-8.062,17.085-10.779,27.076-13.405l1.051-0.277
				c0.993-0.223,2.02-0.336,3.05-0.336c8.237,0,15.659,7.024,15.891,15.088c1.499,5.713,0.401,11.864-3.01,16.876
				c-3.204,4.708-7.942,7.656-13.3,8.301c-9.989-0.452-18.15-6.34-26.043-12.032C345.338,225.759,343.431,224.384,341.549,223.118z
				 M323.164,263.013c0.18-1.285,0.366-2.614-0.16-3.218c-0.266-0.305-0.67-0.391-1.2-0.239c-0.059,0.017-0.109,0.054-0.142,0.104
				c-0.184,0.284-0.367,0.573-0.551,0.863c-1.425,2.246-2.892,4.559-5.082,5.929c4.111-5.239,4.5-11.613,4.876-17.79
				c0.325-5.339,0.661-10.859,3.4-15.617c1.435-1.166,2.96-2.284,4.435-3.364c1.69-1.238,3.433-2.515,5.07-3.886
				c-0.256,0.766-1.032,2.027-1.789,3.256c-0.946,1.538-2.02,3.283-2.46,4.636c-1.585,4.356-1.768,9.092-1.944,13.672
				c-0.225,5.829-0.457,11.856-3.628,17.028c-0.572,0.505-0.812,0.544-0.897,0.55C322.922,264.742,323.061,263.743,323.164,263.013z
				 M318.794,236.048c0.499-1.065,1.437-1.697,2.79-1.879c-0.005,0.852-0.431,2.148-0.879,3.515
				c-0.494,1.506-1.044,3.181-1.177,4.672C318.495,240.463,317.97,237.806,318.794,236.048z M337.407,214.071
				c0.016,0.122,0.111,0.222,0.238,0.222c2.149,0,3.31,2.424,3.311,4.705c0,1.139-0.28,2.18-0.79,2.931
				c-0.561,0.827-1.382,1.265-2.374,1.265c-0.132,0-0.234,0.104-0.244,0.234c-0.255-0.016-0.521-0.048-0.804-0.117
				C332.222,221.994,333.234,215.255,337.407,214.071z M346.836,243.039c-3.347-2.928-6.583-6.075-9.718-9.124
				c-1.268-1.233-2.536-2.467-3.812-3.688c0.319-1.936,1.91-3.69,3.245-5.122C343.455,228.805,346.06,239.006,346.836,243.039z
				 M368.107,257.701c-1.079,0.821-2.301,1.752-3.39,1.752c-0.627,0-1.151-0.319-1.601-0.973c-0.758-1.129-1.853-2.035-2.914-2.911
				c-1.819-1.503-3.537-2.923-3.622-5.366c-0.372-6.333-2.557-12.77-6.333-18.684l0.604,0.358c7.479,4.45,15.24,9.077,24.131,8.697
				c2.782,1.595,4.593,3.295,5.247,4.924c-1.715,3.409-4.74,5.958-7.665,8.422c-1.183,0.996-2.405,2.026-3.486,3.068
				C368.778,257.19,368.451,257.44,368.107,257.701z M375.031,253.533c0.667-0.548,1.301-1.068,1.675-1.514
				c0.631,0.16,0.993,0.384,1.049,0.648c0.148,0.698-1.508,1.928-2.717,2.825c-0.604,0.449-1.178,0.875-1.545,1.232
				c-0.359-0.101-0.744-0.269-0.804-0.532C372.546,255.571,373.982,254.393,375.031,253.533z M293.802,176.337c0,0-0.001,0-0.002,0
				c-0.564-0.001-1.242-0.54-1.96-1.112c-0.601-0.479-1.223-0.974-1.867-1.216c-5.384-1.913-9.933-5.327-12.807-9.61
				c-0.894-1.397-1.512-3.543-0.965-4.942c0.287-0.733,0.867-1.218,1.667-1.435l0.243-0.003c5.715,0,8.139,4.411,10.705,9.081
				c1.676,3.051,3.409,6.204,6.147,8.064C294.469,176.333,293.973,176.337,293.802,176.337z M377.262,255.408
				c0.241-0.145,0.464-0.216,0.682-0.216c0.634,0,1.178,0.636,1.704,1.251c0.314,0.367,0.639,0.747,0.975,0.986
				c1.834,1.579,4.043,2.802,6.18,3.983c3.61,1.998,7.343,4.062,9.272,7.893c0.674,1.238,0.6,2.724-0.203,4.074
				c-0.93,1.564-2.636,2.615-4.247,2.615h-0.001c-0.736,0-1.425-0.21-2.064-0.634c-3.512-1.968-5.138-5.367-6.858-8.966
				c-1.293-2.705-2.63-5.502-4.833-7.611c-0.138-0.148-0.287-0.298-0.436-0.45c-0.664-0.674-1.415-1.439-1.295-2.015
				C376.206,255.988,376.573,255.689,377.262,255.408z"/>
			<!-- Center logo end -->
		 </g>
	</g>
</g>
</svg>
