<?xml version="1.0" encoding="utf-8"?>
<!-- Generator: Adobe Illustrator 22.1.0, SVG Export Plug-In . SVG Version: 6.00 Build 0)  -->
<svg version="1.1" xmlns="http://www.w3.org/2000/svg" xmlns:xlink="http://www.w3.org/1999/xlink" x="0px" y="0px"
	 viewBox="0 0 679 459" enable-background="new 0 0 679 459" xml:space="preserve">
<g id="Grid">
</g>
<g id="Fonts">
</g>
<g id="Logo">
	<g id="Logo_2">
	</g>
	<g id="Logo_1">
		<g>

			<!-- Center logo begin -->
			<path fill="#353A42" d="M403.39,175.841c1.481-3.879,1.712-9.338-2.506-11.951c-0.929-0.612-2.073-0.894-3.18-1.166
				c-1.79-0.441-3.482-0.858-4.282-2.594c-2.062-3.328-6.13-4.027-9.18-4.027c-0.63,0-1.28,0.031-1.923,0.091
				c-4.563,0.315-8.561,2.786-12.606,5.519c-13.301,10.205-23.422,25.565-28.529,43.285c-8.63-7.816-17.114-16.111-25.321-24.136
				c-3.029-2.961-6.057-5.922-9.098-8.866c-0.032-0.031-0.072-0.053-0.116-0.064c-0.262-0.062-0.538-0.095-0.821-0.095
				c-1.363,0-2.725,0.713-4.042,1.403c-0.479,0.251-0.935,0.489-1.375,0.686c-1.54-0.931-2.99-0.914-4.293,0.044
				c-2.92-1.711-4.401-4.605-5.968-7.665c-1.483-2.896-3.017-5.892-5.836-7.729c-1.232-1.331-3.298-2.192-5.263-2.192
				c-2.419,0-4.065,1.314-4.404,3.542c-0.287,7.093,7.139,11.5,11.128,13.867c0.018,0.011,0.037,0.019,0.058,0.025
				c2.023,0.591,5.534,2.078,5.861,3.908c0.143,0.802-0.348,1.627-1.461,2.453c-0.104,0.077-0.132,0.22-0.065,0.33
				c0.906,1.495,0.395,3.063-0.147,4.724c-0.507,1.556-1.031,3.164-0.467,4.861c0.008,0.024,0.02,0.047,0.034,0.067
				c1.738,2.414,3.979,4.79,7.03,7.449c-5.563,1.083-9.908,4.81-12.272,10.546c-3.196,7.753-2.188,17.638,2.463,24.054
				c3.624,4.231,9.05,6.202,17.078,6.202c2.14,0,4.249-0.134,6.097-0.281c-6.096,5.619-12.306,11.471-15.165,19.343
				c-1.657,2.732-4.135,3.701-6.759,4.727c-1.446,0.565-2.941,1.15-4.331,2.047c-0.897,0.501-1.45,1.292-1.6,2.287
				c-0.253,1.68,0.683,3.545,1.659,4.567c1.126,1.186,2.779,1.84,4.655,1.84c2.692-0.001,5.32-1.319,6.538-3.281
				c0.651-1.05,1.199-2.758,0.146-4.965c0.86-2.397,3.004-3.093,5.273-3.828c1.838-0.597,3.74-1.214,5.009-2.764
				c4.898-4.775,9.376-8.971,13.673-12.812c1.097,7.645-0.851,18.13-7.783,23.581c-0.071,0.056-0.106,0.145-0.093,0.232
				c0.013,0.089,0.073,0.164,0.156,0.196c0.529,0.207,1.073,0.311,1.616,0.311c2.716,0,5.027-2.517,7.065-4.736
				c0.483-0.526,0.942-1.026,1.38-1.462c0.01,0.01,0.018,0.02,0.024,0.03c0.224,0.346-0.097,1.519-0.355,2.462
				c-0.329,1.2-0.613,2.237-0.261,2.697c0.081,0.107,0.233,0.232,0.499,0.232c0.313,0,0.723-0.174,1.323-0.573
				c5.905-5.549,6.253-13.165,6.589-20.529c0.25-5.463,0.507-11.106,3.021-15.901c5.342,4.482,10.493,8.944,14.871,14.093
				c0.495,2.592,0.695,5.309,0.889,7.936c0.364,4.929,0.74,10.023,3.056,14.609c1.69,3.388,3.685,5.104,5.977,5.104
				c0.067-0.001,0.131-0.028,0.178-0.076c0.046-0.049,0.071-0.113,0.07-0.181c-0.025-0.967-0.336-1.965-0.638-2.931
				c-0.399-1.279-0.81-2.598-0.603-3.921c1.646,2.07,4.101,4.336,6.966,4.336c1.139,0,2.256-0.368,3.319-1.093
				c0.072-0.049,0.113-0.131,0.109-0.218c-0.004-0.086-0.052-0.164-0.127-0.207c-5.314-3.004-7.789-9.244-8.938-14.157
				c1.325,0.804,2.395,1.967,3.432,3.096c1.109,1.206,2.255,2.453,3.727,3.297c0.067,0.039,0.148,0.044,0.22,0.015
				c1.115-0.461,2.094-1.211,3.04-1.937c1.105-0.847,2.151-1.648,3.384-2.016c1.092,1.111,2.54,1.162,3.775,0.144
				c3.095,2.199,4.787,5.637,6.423,8.963c1.908,3.876,3.88,7.885,8.067,9.923c0.798,0.434,1.652,0.653,2.539,0.653
				c2.094,0,4.205-1.268,5.377-3.231c1.083-1.812,1.163-3.857,0.213-5.621c-2.36-3.838-6.195-6.053-9.905-8.194
				c-3.016-1.742-6.133-3.542-8.428-6.205c0.634-1.09,0.314-2.323-0.892-3.434c0.298-0.512,0.743-1.062,1.212-1.644
				c1.061-1.313,2.158-2.672,1.987-4.043c-0.084-0.674-0.481-1.285-1.18-1.817c-0.308-0.382-0.794-0.79-1.307-1.222
				c-0.785-0.659-1.761-1.48-1.645-1.948c0.06-0.244,0.471-0.461,1.194-0.621c11.747-4.539,15.45-19.107,11.547-29.886
				c-0.07-3.168-2.279-5.165-4.415-7.097c-1.049-0.949-2.044-1.849-2.757-2.855c0.47-0.333,0.944-0.668,1.421-1.004
				C392.47,192.762,401.591,186.325,403.39,175.841z M300.331,251.024l0.024-0.03c0.03,0.254,0.071,0.553,0.117,0.885
				c0.273,1.988,0.783,5.689-0.295,6.926c-0.243,0.278-0.553,0.414-0.947,0.414h0c-0.449,0-1.005-0.178-1.655-0.529
				C295.892,256.434,298.56,253.182,300.331,251.024z M292.861,262.131c-0.058-0.81,1.42-1.818,2.303-2.421l0.229-0.158
				c0.621,0.025,0.943,0.208,0.959,0.543c0.043,0.933-1.767,2.701-2.712,2.883C293.145,262.722,292.883,262.438,292.861,262.131z
				 M290.137,263.2c1.6,0,3.496,0.838,3.88,2.682c0.277,1.22,0.017,2.373-0.753,3.337c-1.059,1.326-3.004,2.183-4.958,2.183h0
				c-2.248,0-3.91-1.112-4.45-2.984c-0.264-0.79-0.193-1.542,0.211-2.237c0.835-1.436,2.974-2.428,4.75-2.78
				C289.229,263.268,289.673,263.2,290.137,263.2z M307.088,253.537c-0.593,1.452-1.935,2.52-3.232,3.553
				c-0.458,0.365-0.929,0.739-1.364,1.129c-1.391-6.597-0.29-11.367,3.274-14.188c0.848,1.003,0.899,3.179,0.948,5.287
				C306.749,250.797,306.785,252.325,307.088,253.537z M311.307,238.867c0.882,1.486,1.078,4.088,1.268,6.607
				c0.088,1.171,0.171,2.279,0.321,3.269c-0.23,0.222-0.461,0.45-0.694,0.679c-1.235,1.212-2.508,2.462-3.952,3.334
				c-0.022-1.145-0.152-2.334-0.279-3.489C307.511,245.075,307.077,241.112,311.307,238.867z M313.548,237.584
				c0.499-0.672,1.358-1.03,2.625-1.094c1.293,0.326,1.342,2.13,1.395,4.039c0.033,1.225,0.068,2.489,0.455,3.415
				c-0.337,0.323-0.667,0.661-0.997,1c-0.797,0.818-1.619,1.662-2.565,2.279c-0.095-0.965-0.378-2.078-0.675-3.247
				C313.162,241.518,312.516,238.976,313.548,237.584z M292.283,180.88c0.37-2.043,4.052-4.698,5.57-5.786l0.588-0.111
				C296.53,176.972,294.3,179.046,292.283,180.88z M375.75,197.135c9.52-7.175,16.087-13.892,20.64-21.108
				c2.046-3.123,2.719-7.14,1.87-11.082c1.66,0.478,2.844,1.411,3.522,2.776c1.875,3.776-0.461,9.9-1.553,12.357
				c-3.395,7.626-10.525,12.507-17.42,17.228c-0.563,0.385-1.123,0.769-1.677,1.151c-1.398-0.113-2.857-0.558-4.269-0.989
				C376.488,197.355,376.116,197.241,375.75,197.135z M354.665,263.231c-0.071,0.043-0.116,0.12-0.12,0.203l-0.011,0.285
				c-0.092,2.439-0.187,4.951,0.609,7.318c-4.385-3.356-5.238-9.688-5.486-16.061c0.026-8.718-1.676-20.947-9.819-30.248
				c6.8,2.25,11.724,9.404,14.636,21.237c0.257,9.398,3.414,17.706,8.899,23.448c-0.317,0.079-0.626,0.12-0.92,0.12h-0.001
				c-1.914-0.001-3.225-1.698-4.494-3.339c-0.922-1.194-1.876-2.429-3.059-2.978C354.824,263.182,354.736,263.188,354.665,263.231z
				 M322.863,215.862c-1.93,0-3.883-0.057-5.617-0.108c-1.351-1.801-3.055-3.288-4.704-4.727c-1.398-1.22-2.839-2.477-4.055-3.92
				c7.715,1.435,14.68,4.368,20.223,8.518C327.01,215.784,325.089,215.862,322.863,215.862z M311.206,211.699
				c2.489,1.923,4.839,3.74,4.394,6.457c-0.014,0.083,0.015,0.168,0.077,0.224c1.994,1.838,3.962,4.027,6.01,6.686l-0.369,0.162
				c-6.125,2.692-12.459,5.477-19.118,5.476c-1.187,0-2.365-0.091-3.499-0.27c-4.23-0.716-7.417-3.044-8.515-6.189
				c-1.192-6.233,1.081-13.082,5.793-17.475c0.768-0.038,1.561-0.119,2.399-0.205c1.169-0.119,2.377-0.243,3.545-0.243
				c2.811,0,4.644,0.735,5.945,2.385C308.729,209.785,309.989,210.758,311.206,211.699z M332.305,220.08
				c-2.492,1.411-5.244,2.815-8.641,4.407c-0.937-0.888-1.825-1.879-2.686-2.839c-1.11-1.239-2.258-2.519-3.52-3.6
				c-0.27-0.311-0.236-0.417-0.235-0.418c0.07-0.165,0.88-0.205,1.269-0.224c0.447-0.022,0.87-0.042,1.151-0.147
				c0.755-0.1,1.56-0.149,2.462-0.149c1.162,0,2.347,0.081,3.494,0.161c1.155,0.08,2.351,0.162,3.53,0.162
				c0.359,0,0.718-0.007,1.118-0.03c0.646-0.143,1.258,0.115,1.678,0.7C332.34,218.679,332.484,219.445,332.305,220.08z
				 M333.717,214.685c0.114,0.539-0.547,1.337-0.92,1.748c-10.9-7.821-21.619-11.787-31.862-11.787
				c-0.661,0-1.329,0.017-2.004,0.053c-8.092,1.059-10.764,10.86-10.585,17.165c-0.175,2.354,0.615,4.551,2.286,6.351
				c2.307,2.485,6.235,4.09,10.008,4.089l0.254-0.002c9.374-0.12,18.004-4.148,26.35-8.043c1.837-0.857,3.734-1.743,5.588-2.561
				c0.589,0.398,0.887,0.946,0.843,1.556c-0.056,0.777-0.643,1.513-1.496,1.876c-0.027,0.012-0.052,0.028-0.074,0.048
				c-7.934,7.514-17.452,11.652-26.801,11.652c-0.681,0-1.369-0.022-2.083-0.066c-0.56,0.049-1.133,0.074-1.703,0.074
				c-5.403,0-12.686-2.373-15.435-9.072c-3.111-6.524-2.714-15.669,0.944-21.745c1.781-2.958,5.154-6.535,11.114-6.793
				c12.278,1.744,23.134,7.801,35.073,14.963C333.509,214.318,333.673,214.479,333.717,214.685z M396.018,172.983
				c-4.478,8.359-11.803,15.995-23.052,24.026c-3.146,0.648-6.268,1.596-9.286,2.513c-1.879,0.57-3.815,1.158-5.749,1.671
				c5.556-6.368,11.648-12.41,17.545-18.259c6.18-6.129,12.569-12.466,18.336-19.173l0.043-0.001c1.028,0,1.815,0.411,2.34,1.222
				C397.494,166.991,396.91,170.997,396.018,172.983z M355.086,218.078c-0.689,0.109-1.403,0.244-2.153,0.385
				c-1.955,0.369-3.975,0.749-5.905,0.749h0c-1.935-0.001-3.475-0.396-4.699-1.208c1.132-1.695,3.521-2.647,5.638-3.491
				c0.647-0.258,1.259-0.501,1.817-0.755c0.254-0.094,0.516-0.142,0.777-0.142C352.605,213.617,354.425,216.497,355.086,218.078z
				 M351,220.282c0.814,0,1.744-0.033,2.508-0.27c3.488,0.888,6.158,3.861,8.74,6.738c1.148,1.279,2.329,2.594,3.574,3.714
				c-7.197-1.528-13.695-5.725-19.161-9.717c0.565-0.394,1.498-0.481,2.701-0.481c0.266,0,0.536,0.004,0.807,0.008
				C350.447,220.278,350.725,220.282,351,220.282z M354.477,214.28c-0.512-0.512-1-1-1.388-1.509l0.651-0.214
				c5.404-1.776,10.991-3.612,16.825-3.892c5.324-1.045,12.83,1.161,12.952,7.44c0,0.021,0.003,0.042,0.009,0.063
				c1.01,3.586,0.169,7.633-2.249,10.825c-2.304,3.04-5.606,4.786-9.06,4.785c-0.729,0-1.467-0.078-2.194-0.233
				c-2.771-1.817-5.117-4.259-7.387-6.621c-1.815-1.89-3.691-3.842-5.79-5.487C357.414,217.215,355.856,215.658,354.477,214.28z
				 M373.538,182.617c-5.329,5.197-10.839,10.571-15.798,16.317c-2.138,2.771-5.219,4.472-8.198,6.118
				c-0.455,0.251-0.908,0.501-1.359,0.755c7.794-20.9,21.972-36.722,38.938-43.452c0.998-0.207,1.857-0.312,2.554-0.312
				c0.915,0,1.556,0.184,1.851,0.533c0.182,0.214,0.247,0.498,0.198,0.866C386.17,170.298,379.749,176.561,373.538,182.617z
				 M383.387,162.054c-20.253,9.484-31.994,30.222-38.283,45.98c-0.13,0.073-0.271,0.109-0.422,0.109
				c-0.386,0-0.835-0.237-1.231-0.652c-0.479-0.501-0.775-1.147-0.761-1.597c3.812-15.343,13.001-29.933,25.866-41.075
				c4.494-3.577,8.971-5.859,13.288-6.781c0.764-0.101,1.522-0.151,2.255-0.151c2.051,0,4.806,0.403,6.64,2.251
				C387.638,160.219,385.284,160.836,383.387,162.054z M340.659,212.09c-0.435,0.331-0.848,0.645-1.158,0.941
				c-1.371-0.532-2.802-0.347-4.14,0.53c-1.255-0.705-2.51-1.419-3.766-2.134c-9.758-5.551-19.849-11.292-31.081-13.546
				c-3.406-0.881-5.677-3.73-7.873-6.484c-0.569-0.714-1.108-1.39-1.668-2.037c0.127-8.742,9.767-13.954,13.927-15.797
				c0.168-0.082,0.333-0.122,0.505-0.122c0.624,0,1.236,0.549,1.727,0.99l0.045,0.04c6.006,5.537,11.941,11.352,17.681,16.976
				c5.688,5.573,11.57,11.336,17.529,16.835c0.433,0.364,0.639,0.727,0.63,1.109C342.994,210.313,341.699,211.298,340.659,212.09z
				 M341.549,223.118c0.24-0.645,0.508-1.291,0.768-1.917c0.127-0.308,0.255-0.616,0.38-0.924
				c9.138,6.084,18.214,11.616,28.605,12.847c0.295,0.021,0.587,0.031,0.878,0.031h0.001c3.62,0,7.149-1.646,9.684-4.515
				c2.605-2.949,3.838-6.787,3.383-10.533c0.414-2.577-0.282-5.016-2.013-7.055c-2.144-2.525-5.643-4.094-9.129-4.094
				c-0.319,0-0.638,0.014-0.953,0.04c-11.153,0.877-21.925,3.95-31.165,8.891c-0.495-0.473-0.738-1.046-0.673-1.595
				c0.066-0.559,0.448-1.04,1.075-1.356c0.03-0.015,0.057-0.037,0.079-0.062c6.755-8.062,17.085-10.779,27.076-13.405l1.051-0.277
				c0.993-0.223,2.02-0.336,3.05-0.336c8.237,0,15.659,7.024,15.891,15.088c1.499,5.713,0.401,11.864-3.01,16.876
				c-3.204,4.708-7.942,7.656-13.3,8.301c-9.989-0.452-18.15-6.34-26.043-12.032C345.338,225.759,343.431,224.384,341.549,223.118z
				 M323.164,263.013c0.18-1.285,0.366-2.614-0.16-3.218c-0.266-0.305-0.67-0.391-1.2-0.239c-0.059,0.017-0.109,0.054-0.142,0.104
				c-0.184,0.284-0.367,0.573-0.551,0.863c-1.425,2.246-2.892,4.559-5.082,5.929c4.111-5.239,4.5-11.613,4.876-17.79
				c0.325-5.339,0.661-10.859,3.4-15.617c1.435-1.166,2.96-2.284,4.435-3.364c1.69-1.238,3.433-2.515,5.07-3.886
				c-0.256,0.766-1.032,2.027-1.789,3.256c-0.946,1.538-2.02,3.283-2.46,4.636c-1.585,4.356-1.768,9.092-1.944,13.672
				c-0.225,5.829-0.457,11.856-3.628,17.028c-0.572,0.505-0.812,0.544-0.897,0.55C322.922,264.742,323.061,263.743,323.164,263.013z
				 M318.794,236.048c0.499-1.065,1.437-1.697,2.79-1.879c-0.005,0.852-0.431,2.148-0.879,3.515
				c-0.494,1.506-1.044,3.181-1.177,4.672C318.495,240.463,317.97,237.806,318.794,236.048z M337.407,214.071
				c0.016,0.122,0.111,0.222,0.238,0.222c2.149,0,3.31,2.424,3.311,4.705c0,1.139-0.28,2.18-0.79,2.931
				c-0.561,0.827-1.382,1.265-2.374,1.265c-0.132,0-0.234,0.104-0.244,0.234c-0.255-0.016-0.521-0.048-0.804-0.117
				C332.222,221.994,333.234,215.255,337.407,214.071z M346.836,243.039c-3.347-2.928-6.583-6.075-9.718-9.124
				c-1.268-1.233-2.536-2.467-3.812-3.688c0.319-1.936,1.91-3.69,3.245-5.122C343.455,228.805,346.06,239.006,346.836,243.039z
				 M368.107,257.701c-1.079,0.821-2.301,1.752-3.39,1.752c-0.627,0-1.151-0.319-1.601-0.973c-0.758-1.129-1.853-2.035-2.914-2.911
				c-1.819-1.503-3.537-2.923-3.622-5.366c-0.372-6.333-2.557-12.77-6.333-18.684l0.604,0.358c7.479,4.45,15.24,9.077,24.131,8.697
				c2.782,1.595,4.593,3.295,5.247,4.924c-1.715,3.409-4.74,5.958-7.665,8.422c-1.183,0.996-2.405,2.026-3.486,3.068
				C368.778,257.19,368.451,257.44,368.107,257.701z M375.031,253.533c0.667-0.548,1.301-1.068,1.675-1.514
				c0.631,0.16,0.993,0.384,1.049,0.648c0.148,0.698-1.508,1.928-2.717,2.825c-0.604,0.449-1.178,0.875-1.545,1.232
				c-0.359-0.101-0.744-0.269-0.804-0.532C372.546,255.571,373.982,254.393,375.031,253.533z M293.802,176.337c0,0-0.001,0-0.002,0
				c-0.564-0.001-1.242-0.54-1.96-1.112c-0.601-0.479-1.223-0.974-1.867-1.216c-5.384-1.913-9.933-5.327-12.807-9.61
				c-0.894-1.397-1.512-3.543-0.965-4.942c0.287-0.733,0.867-1.218,1.667-1.435l0.243-0.003c5.715,0,8.139,4.411,10.705,9.081
				c1.676,3.051,3.409,6.204,6.147,8.064C294.469,176.333,293.973,176.337,293.802,176.337z M377.262,255.408
				c0.241-0.145,0.464-0.216,0.682-0.216c0.634,0,1.178,0.636,1.704,1.251c0.314,0.367,0.639,0.747,0.975,0.986
				c1.834,1.579,4.043,2.802,6.18,3.983c3.61,1.998,7.343,4.062,9.272,7.893c0.674,1.238,0.6,2.724-0.203,4.074
				c-0.93,1.564-2.636,2.615-4.247,2.615h-0.001c-0.736,0-1.425-0.21-2.064-0.634c-3.512-1.968-5.138-5.367-6.858-8.966
				c-1.293-2.705-2.63-5.502-4.833-7.611c-0.138-0.148-0.287-0.298-0.436-0.45c-0.664-0.674-1.415-1.439-1.295-2.015
				C376.206,255.988,376.573,255.689,377.262,255.408z"/>
			<!-- Center logo end -->

			<g>

				<!-- Left logo begin -->
				<path fill="#353A42" d="M280.318,285.787c-1.332-0.576-2.608-1.209-3.859-1.865c0.048-0.111,0.057-0.238-0.009-0.363
					c-0.565-1.055-2.539-4.152-1.376-5.23c1.594-1.475,3.817,2.035,3.111,2.447c-0.519,0.303-0.355,1.012,0.157,1.201
					c1.594,0.584,1.651-1.629,1.263-2.562c-0.582-1.4-1.752-2.795-3.377-2.859c-1.37-0.055-2.707,0.84-2.773,2.291
					c-0.065,1.418,0.735,3.066,1.631,4.334c-2.105-1.182-4.109-2.465-5.996-3.855c1.396-1.518,1.644-4.119,1.306-6.043
					c-0.291-1.658-1.416-4.578-3.27-5.059c-2.121-0.549-2.003,2.562-1.954,3.812c0.071,1.814,0.494,3.539,1.2,5.152
					c-3.016-2.525-5.737-5.315-8.139-8.348c-0.328-0.996-0.606-2.01-0.779-3.066c-0.119-0.721-0.346-1.834-0.083-2.547
					c0.368-0.541,0.735-1.082,1.103-1.623c0.71,0.246,1.42,0.49,2.13,0.736c0.508,0.414,0.675,1.49,0.749,2.088
					c0.097,0.34,0.107,0.68,0.03,1.023c0.042,0.719-0.355,1.211-1.189,1.473c-0.045-0.576-0.764-0.801-1.092-0.295
					c-1.184,1.822,1.569,2.371,2.729,1.258c1.808-1.732,1.086-5.266-0.502-6.918c-1.643-1.713-4.191-0.9-5.007,1.228
					c-0.446,1.162-0.411,2.533-0.107,3.932c-1.791-2.543-3.399-5.219-4.814-8.012c0.053-0.088,0.07-0.189,0.064-0.299
					c0.096-0.043,0.189-0.105,0.277-0.199c1.914-2.059,3.035-4.696,3.106-7.522c0.034-1.356,0.003-4.715-1.894-4.936
					c-1.94-0.227-2.855,2.873-3.249,4.259c-0.372,1.309-0.52,2.665-0.465,4.012c-1.494-3.58-2.727-7.3-3.683-11.128
					c-0.306-2.405-0.479-6.09,1.706-7.339c3.288-1.878,4.43,4.835,0.631,5.361c-0.415,0.058-0.44,0.682-0.113,0.864
					c3.436,1.915,5.508-5.701,2.115-7.52c-1.681-0.9-3.654,0.004-4.595,1.536c-0.43,0.698-0.668,1.483-0.799,2.302
					c-0.562-2.962-0.977-5.969-1.249-9.001c2.006-0.34,3.934-2.297,4.996-3.848c0.83-1.211,2.501-4.143,1.407-5.6
					c-1.308-1.742-3.928,1.263-4.688,2.191c-0.839,1.025-1.508,2.169-1.983,3.388c-0.01-0.201-0.025-0.401-0.034-0.603
					c-0.158-3.626-0.186-7.288-0.081-10.957c0.804-1.708,1.904-3.378,3.335-3.944c2.289-0.906,2.791,1.692,1.93,3.272
					c-0.658,1.208-1.719,1.77-2.958,2.25c-0.599,0.232-0.589,1.269,0.165,1.216c3.098-0.218,6.899-5.678,3.348-7.847
					c-2.412-1.473-4.365,0.416-5.746,2.807c0.199-4.453,0.612-8.908,1.278-13.31c0.02,0.007,0.036,0.018,0.059,0.023
					c2.412,0.502,10.958-5.306,7.671-7.487c-1.568-1.04-4.021,0.728-5.184,1.656c-0.685,0.546-1.318,1.177-1.883,1.867
					c0.607-3.231,1.357-6.425,2.269-9.558c3.796-0.941,9.42-3.145,8.86-7.244c-0.502-3.679-6.281-3.062-5.051,0.357
					c0.24,0.667,1.225,0.574,1.253-0.169c1.179-1.672,1.951-1.533,2.316,0.415c-0.111,0.855-0.473,1.576-1.087,2.161
					c-0.688,0.71-1.6,1.208-2.451,1.691c-1.131,0.642-2.3,1.164-3.489,1.648c1.199-3.928,2.643-7.761,4.389-11.445
					c0.086,0.04,0.182,0.069,0.293,0.075c1.976,0.113,9.951,0.066,9.155-3.611c-0.311-1.44-2.099-1.827-3.35-1.857
					c-1.277-0.031-2.554,0.325-3.757,0.856c1.093-1.952,2.271-3.857,3.551-5.704c1.791,2.265,5.476,3.117,7.853,1.333
					c1.107-0.83,1.858-2.357,0.944-3.612c-0.739-1.015-2.27-1.408-3.021-0.24c-0.2,0.312,0.136,0.787,0.501,0.653
					c0.347-0.128,1.292,0.062,1.47,0.396c0.371,0.696-0.374,1.452-0.869,1.809c-0.756,0.545-1.784,0.705-2.702,0.623
					c-1.466-0.13-2.603-0.864-3.511-1.895c1.559-2.17,3.245-4.265,5.086-6.261c0.815,0.873,1.929,1.477,3.087,1.745
					c1.267,0.293,3.526,0.352,4.461-0.777c1.155-1.393-0.6-2.641-1.75-3.143c-0.892-0.39-1.943-0.651-2.99-0.693
					c0.741-0.71,1.496-1.41,2.278-2.092c0.183-0.159,0.253-0.362,0.246-0.567c1.009-0.211,2.012-0.938,2.762-1.536
					c1.075-0.856,1.947-1.924,2.563-3.151c0.238-0.475-0.055-1.002-0.591-1.029c-2.826-0.148-5.573,1.822-6.073,4.657
					c-0.022,0.123,0.012,0.223,0.07,0.297c-0.001,0.001-0.002,0.001-0.002,0.001c-2.916,2.227-5.54,4.712-7.902,7.406
					c-1.01-2.209-1.3-5.08,0.192-7.155c1.458-2.027,4.068-1.716,5.164,0.407c0.226,0.439,0.907,0.221,0.907-0.246
					c0.002-3.059-4.014-3.781-6.089-2.289c-3.12,2.244-2.806,6.824-0.81,9.656c0.056,0.08,0.126,0.124,0.197,0.148
					c-1.701,1.989-3.254,4.095-4.682,6.288c0.665-3.105-0.009-8.025-2.922-8.68c-0.345-0.077-0.729,0.05-0.908,0.37
					c-1.94,3.462-1.355,8.482,2.025,10.862c0.059,0.041,0.122,0.057,0.186,0.062c-2.142,3.655-3.934,7.544-5.445,11.574
					c-0.036,0.01-0.071,0.015-0.108,0.032c-0.594,0.287-2.177-3.407-2.325-3.86c-0.246-0.751-0.46-1.601-0.404-2.391
					c0.115-0.466,0.23-0.932,0.345-1.396c0.785-1.437,1.795-1.312,3.03,0.373c0.07,0.458,0.829,0.444,0.912,0
					c0.281-1.503-0.77-2.858-2.341-2.975c-1.799-0.134-3.191,1.485-3.518,3.115c-0.42,2.099,0.494,4.471,1.617,6.21
					c0.461,0.715,1.411,2.092,2.349,2.115c-1.145,3.2-2.098,6.492-2.897,9.832c-0.186-1.397-0.569-2.768-1.189-4.039
					c-0.68-1.396-2.261-2.995-3.917-1.89c-1.613,1.075-0.725,3.7-0.112,5.073c0.796,1.787,2.12,3.298,3.822,4.238
					c-0.001,0.001-0.001,0.002-0.001,0.004c-0.029,0.398,0.214,0.615,0.508,0.676c-0.423,2.127-0.764,4.27-1.068,6.417
					c-0.065-0.038-0.13-0.076-0.196-0.114c-0.745-3.145-2.561-6.479-5.359-4.969c-1.956,1.056-0.83,3.539-0.057,4.991
					c1.119,2.103,2.784,3.932,4.839,5.145c0.054,0.032,0.109,0.046,0.163,0.057c-0.164,1.633-0.292,3.264-0.397,4.89
					c-0.242-0.653-0.582-1.265-1.062-1.796c-1.071-1.187-2.846-1.852-4.41-1.37c-1.326,0.408-2.198,1.58-2.205,2.971
					c-0.006,1.241,0.689,2.391,1.976,2.531c0.384,0.042,0.61-0.53,0.321-0.774c-1.522-1.286-0.638-3.577,1.431-3.295
					c2.438,0.334,3.21,3.015,3.545,5.084c0.023,0.146,0.105,0.237,0.21,0.288c-0.058,1.46-0.085,2.908-0.1,4.352
					c-0.024,0.078-0.047,0.156-0.068,0.228c-0.045,0.152-0.007,0.275,0.067,0.367c-0.007,1.35,0.011,2.686,0.038,4.017
					c-0.468-3.092-2.898-5.661-5.876-6.613c-0.334-0.106-0.697,0.073-0.876,0.357c-1.012,1.602-0.209,3.335,0.917,4.651
					c1.485,1.736,3.597,3.521,5.676,4.475c0.085,0.038,0.171,0.051,0.257,0.05c0.034,0.827,0.055,1.662,0.103,2.477
					c0.135,2.306,0.358,4.648,0.673,7.006c-0.96-1.527-2.279-2.987-3.736-3.951c-1.153-0.763-3.778-1.905-4.894-0.498
					c-1.243,1.566,1.179,3.559,2.247,4.362c1.872,1.409,4.26,2.332,6.625,2.198c0.024-0.001,0.043-0.013,0.065-0.017
					c0.635,4.062,1.547,8.15,2.749,12.163c-0.856-1.062-1.879-1.965-3.239-2.325c-1.871-0.496-3.885,0.153-4.679,2.012
					c-0.763,1.787-0.034,3.79,1.502,4.906c1.195,0.87,3.31,1.351,4.08-0.288c0.306-0.65-0.425-1.216-0.98-0.757
					c-2.143,1.777-5.369-4.02-1.374-4.513c2.315-0.286,3.905,1.857,5.111,3.506c0.124,0.17,0.295,0.234,0.465,0.236
					c0.533,1.582,1.113,3.148,1.741,4.691c-0.534-0.379-1.105-0.711-1.719-0.983c-1.339-0.592-3.307-0.984-4.359,0.336
					c-1.15,1.442-0.114,3.286,1.29,4.073c1.803,1.014,4.694,1.658,6.914,1.318c1.107,2.258,2.333,4.441,3.671,6.539
					c-2.935-1.789-7.742-3.68-7.794-0.029c-0.03,2.047,2.265,2.852,3.831,3.484c2.114,0.853,4.57,1.498,6.706,0.478
					c1.145,1.512,2.362,2.959,3.65,4.334c-1.586-0.17-3.068,0.377-3.857,2.322c-1.122,2.768,1.308,5.723,4.228,5.188
					c0.716-0.131,0.511-1.201-0.166-1.225c-2.086-0.076-3.804-2.035-2.44-4.023c0.875-1.275,2.25-1.27,3.589-0.873
					c2.539,2.512,5.343,4.738,8.421,6.621c-3.133-0.156-8.349,0.375-7.709,2.943c0.389,1.561,3.074,1.162,4.212,1.062
					c2.332-0.203,4.664-0.938,6.58-2.297c2.331,1.178,4.796,2.176,7.419,2.941C280.445,286.736,280.789,285.99,280.318,285.787z
					 M244.815,223.58c0.294-0.48,3.092-4.264,3.832-3.456c0.266,0.29-0.682,2.213-0.82,2.478c-0.373,0.716-0.847,1.384-1.393,1.979
					c-0.861,0.935-1.879,1.408-2.882,1.965C243.849,225.513,244.242,224.517,244.815,223.58z M272.295,144.165
					c-0.437,0.575-0.929,1.104-1.51,1.555c-0.692,0.539-1.531,0.814-2.278,1.221C269.26,145.431,270.66,144.403,272.295,144.165z
					 M264.789,152.672c0.898-0.124,1.766-0.23,2.71-0.031c0.539,0.114,1.223,0.305,1.68,0.602c0.727,0.475,1.066,0.858,0.06,1.132
					c-1.831,0.497-3.495-0.145-4.841-1.285C264.53,152.952,264.655,152.809,264.789,152.672z M251.834,155.069
					c1.137,0.815,1.34,3.142,1.425,4.273c0.103,1.375-0.23,2.73-0.12,4.089c0.001,0.022,0.01,0.04,0.015,0.061
					C251.305,160.92,250.571,158.028,251.834,155.069z M253.321,168.585c0.798-0.365,1.6-0.722,2.448-0.95
					c0.601-0.162,5.086-0.871,3.767,1.293c-0.377,0.619-2.319,0.764-2.958,0.863c-1.325,0.208-2.656,0.239-3.992,0.218
					C252.825,169.531,253.072,169.057,253.321,168.585z M245.991,194.234c0.999-1.055,2.683-2.543,4.175-2.823
					c1.296-0.243,0.467,0.714-0.042,1.306c-0.526,0.611-1.128,1.175-1.782,1.646c-1.154,0.834-2.609,1.086-3.78,1.785
					C244.965,195.47,245.426,194.83,245.991,194.234z M241.012,187.007c-0.53-0.862-1.546-2.666-1.222-3.693
					c0.767-2.431,2.429,1.931,2.626,2.672c0.272,1.021,0.383,2.05,0.397,3.089C242.122,188.476,241.504,187.807,241.012,187.007z
					 M239.39,199.108c-0.713-0.932-1.888-2.487-2.041-3.699c-0.373-2.941,1.653-0.996,2.21-0.232
					c0.421,0.58,0.626,1.363,0.843,2.046c0.391,1.229,0.454,2.49,0.702,3.733C240.489,200.383,239.907,199.784,239.39,199.108z
					 M235.322,215.368c2.587,0.938,4.234,3.114,4.832,5.772C238.113,219.626,234.976,217.271,235.322,215.368z M238.041,232.372
					c-0.69-0.365-1.341-0.817-1.924-1.336c-0.249-0.223-0.51-0.462-0.724-0.719c-0.112-0.129-0.223-0.258-0.335-0.386
					c-0.464-0.556-0.446-0.759,0.054-0.608c1.187-0.273,2.829,1.25,3.558,1.994c0.569,0.58,1.049,1.225,1.528,1.87
					C239.46,232.993,238.739,232.742,238.041,232.372z M246.479,257.398c-0.727-0.143-1.459-0.326-2.151-0.59
					c-0.27-0.119-0.54-0.238-0.811-0.357c-1.173-0.551-1.131-1.254,0.125-2.104c1.039-0.258,2.517,0.607,3.345,1.121
					c0.549,0.34,1.037,0.74,1.488,1.178c0.148,0.33,0.295,0.662,0.447,0.99C248.108,257.586,247.291,257.555,246.479,257.398z
					 M250.57,252.619c0.047-1.124,0.548-5.358,1.97-5.614c1.14-0.206,0.736,3.815,0.57,4.619c-0.343,1.669-1.099,3.066-2.154,4.349
					C250.688,254.883,250.521,253.781,250.57,252.619z M251.558,268.289c-0.75-0.211-1.495-0.512-2.205-0.824
					c-0.187-0.082-1.446-0.539-1.542-0.76c0.118-0.506,0.236-1.012,0.355-1.52c0.52,0.039,1.033,0.117,1.54,0.234
					c0.569,0.127,1.136,0.299,1.681,0.504c1.245,0.469,2.303,1.174,3.383,1.934c0.121,0.172,0.239,0.346,0.362,0.518
					C253.938,268.656,252.827,268.643,251.558,268.289z M268.063,278.299c-0.513-1.008-0.92-2.057-1.185-3.184
					c-0.082-0.352-1.052-5.42,0.494-4.949c1.22,0.371,1.673,3.604,1.679,4.535C269.058,276.088,268.555,277.133,268.063,278.299z
					 M268.162,284.303c-0.342,0.074-3.914,0.777-4.227,0.266c-0.355-0.58,2.565-1.086,2.856-1.131
					c1.445-0.223,2.836-0.051,4.269-0.09C270.121,283.74,269.169,284.086,268.162,284.303z"/>
				<!-- Left logo end -->

				<!-- Right logo begin -->
				<path fill="#353A42" d="M399.024,286.598c2.623-0.766,5.088-1.764,7.418-2.941c1.917,1.359,4.249,2.094,6.581,2.297
					c1.138,0.1,3.824,0.498,4.212-1.062c0.64-2.568-4.576-3.1-7.709-2.943c3.078-1.883,5.882-4.109,8.42-6.621
					c1.34-0.397,2.715-0.402,3.59,0.873c1.364,1.988-0.354,3.947-2.44,4.023c-0.676,0.023-0.882,1.094-0.166,1.225
					c2.92,0.535,5.35-2.42,4.228-5.188c-0.79-1.945-2.271-2.492-3.857-2.322c1.288-1.375,2.505-2.822,3.65-4.334
					c2.136,1.02,4.592,0.375,6.706-0.478c1.566-0.633,3.86-1.438,3.831-3.484c-0.053-3.65-4.86-1.76-7.794,0.029
					c1.337-2.098,2.565-4.281,3.671-6.539c2.22,0.34,5.11-0.305,6.914-1.318c1.405-0.787,2.441-2.631,1.29-4.073
					c-1.052-1.32-3.02-0.928-4.358-0.336c-0.614,0.272-1.185,0.604-1.72,0.983c0.628-1.543,1.208-3.109,1.742-4.691
					c0.169-0.002,0.34-0.066,0.465-0.236c1.206-1.648,2.796-3.792,5.111-3.506c3.994,0.493,0.769,6.29-1.374,4.513
					c-0.555-0.459-1.286,0.106-0.98,0.757c0.77,1.639,2.884,1.158,4.08,0.288c1.536-1.116,2.264-3.119,1.501-4.906
					c-0.793-1.858-2.808-2.508-4.679-2.012c-1.36,0.36-2.383,1.264-3.239,2.325c1.202-4.013,2.114-8.102,2.749-12.163
					c0.022,0.004,0.042,0.016,0.065,0.017c2.365,0.134,4.753-0.789,6.625-2.198c1.067-0.803,3.489-2.795,2.247-4.362
					c-1.116-1.407-3.741-0.265-4.895,0.498c-1.457,0.964-2.776,2.423-3.736,3.951c0.315-2.358,0.539-4.701,0.674-7.006
					c0.048-0.814,0.069-1.649,0.103-2.477c0.086,0.001,0.172-0.012,0.257-0.05c2.08-0.954,4.191-2.739,5.676-4.475
					c1.126-1.316,1.928-3.049,0.917-4.651c-0.179-0.283-0.542-0.463-0.875-0.357c-2.979,0.952-5.409,3.521-5.876,6.613
					c0.026-1.331,0.045-2.667,0.038-4.017c0.075-0.092,0.112-0.215,0.067-0.367c-0.021-0.071-0.044-0.149-0.069-0.228
					c-0.014-1.443-0.042-2.892-0.099-4.352c0.104-0.051,0.186-0.143,0.21-0.288c0.334-2.069,1.108-4.75,3.544-5.084
					c2.069-0.282,2.953,2.009,1.431,3.295c-0.288,0.244-0.062,0.816,0.321,0.774c1.288-0.141,1.983-1.29,1.976-2.531
					c-0.007-1.391-0.879-2.562-2.205-2.971c-1.563-0.481-3.338,0.184-4.409,1.37c-0.479,0.531-0.82,1.143-1.062,1.796
					c-0.105-1.626-0.233-3.257-0.397-4.89c0.055-0.011,0.11-0.024,0.164-0.057c2.055-1.213,3.721-3.042,4.839-5.145
					c0.773-1.452,1.899-3.936-0.057-4.991c-2.799-1.511-4.614,1.824-5.359,4.969c-0.066,0.038-0.131,0.076-0.197,0.114
					c-0.304-2.147-0.645-4.29-1.067-6.417c0.294-0.061,0.537-0.277,0.508-0.676c-0.001-0.002,0-0.003-0.001-0.004
					c1.702-0.941,3.026-2.451,3.822-4.238c0.612-1.373,1.501-3.998-0.112-5.073c-1.656-1.105-3.237,0.493-3.917,1.89
					c-0.62,1.271-1.004,2.642-1.189,4.039c-0.8-3.34-1.753-6.632-2.897-9.832c0.938-0.023,1.887-1.4,2.349-2.115
					c1.123-1.739,2.037-4.111,1.616-6.21c-0.327-1.63-1.719-3.249-3.518-3.115c-1.571,0.116-2.622,1.472-2.341,2.975
					c0.083,0.444,0.841,0.458,0.911,0c1.235-1.686,2.246-1.81,3.031-0.373c0.115,0.465,0.229,0.931,0.345,1.396
					c0.056,0.79-0.158,1.64-0.404,2.391c-0.148,0.453-1.731,4.147-2.325,3.86c-0.037-0.018-0.072-0.022-0.108-0.032
					c-1.511-4.03-3.303-7.919-5.445-11.574c0.064-0.006,0.128-0.021,0.186-0.062c3.38-2.38,3.965-7.4,2.025-10.862
					c-0.179-0.32-0.564-0.447-0.908-0.37c-2.913,0.654-3.587,5.574-2.923,8.68c-1.429-2.193-2.98-4.299-4.682-6.288
					c0.071-0.024,0.141-0.068,0.197-0.148c1.996-2.832,2.31-7.412-0.809-9.656c-2.076-1.492-6.091-0.77-6.089,2.289
					c0.001,0.467,0.681,0.685,0.907,0.246c1.095-2.123,3.706-2.435,5.163-0.407c1.492,2.075,1.202,4.946,0.192,7.155
					c-2.362-2.694-4.985-5.18-7.901-7.405c-0.001-0.001-0.002-0.001-0.003-0.002c0.059-0.074,0.092-0.174,0.07-0.297
					c-0.5-2.835-3.247-4.806-6.073-4.657c-0.536,0.027-0.829,0.555-0.591,1.029c0.616,1.228,1.488,2.295,2.562,3.151
					c0.751,0.598,1.753,1.325,2.763,1.536c-0.007,0.205,0.063,0.408,0.246,0.567c0.782,0.682,1.537,1.382,2.278,2.092
					c-1.046,0.042-2.098,0.304-2.99,0.693c-1.15,0.502-2.905,1.749-1.749,3.143c0.935,1.129,3.194,1.07,4.461,0.777
					c1.158-0.268,2.272-0.872,3.086-1.745c1.841,1.996,3.527,4.091,5.086,6.261c-0.909,1.03-2.045,1.765-3.511,1.895
					c-0.917,0.082-1.946-0.078-2.702-0.623c-0.496-0.356-1.239-1.112-0.869-1.809c0.178-0.334,1.123-0.524,1.47-0.396
					c0.366,0.134,0.702-0.341,0.502-0.653c-0.751-1.168-2.282-0.774-3.021,0.24c-0.914,1.255-0.163,2.782,0.944,3.612
					c2.378,1.784,6.064,0.932,7.854-1.333c1.279,1.847,2.458,3.752,3.551,5.704c-1.203-0.531-2.48-0.888-3.757-0.856
					c-1.251,0.03-3.038,0.417-3.35,1.857c-0.795,3.678,7.18,3.725,9.156,3.611c0.111-0.006,0.207-0.035,0.293-0.075
					c1.746,3.685,3.19,7.518,4.389,11.445c-1.189-0.484-2.358-1.007-3.489-1.648c-0.851-0.483-1.763-0.981-2.452-1.691
					c-0.613-0.585-0.976-1.306-1.086-2.161c0.365-1.948,1.136-2.087,2.315-0.415c0.028,0.743,1.014,0.836,1.253,0.169
					c1.23-3.42-4.548-4.036-5.05-0.357c-0.56,4.1,5.063,6.303,8.86,7.244c0.913,3.133,1.663,6.326,2.27,9.558
					c-0.565-0.69-1.199-1.321-1.883-1.867c-1.162-0.929-3.615-2.696-5.184-1.656c-3.287,2.182,5.26,7.989,7.671,7.487
					c0.022-0.005,0.038-0.016,0.059-0.023c0.665,4.401,1.079,8.857,1.278,13.31c-1.381-2.391-3.334-4.279-5.746-2.807
					c-3.551,2.169,0.25,7.629,3.348,7.847c0.753,0.053,0.763-0.984,0.164-1.216c-1.239-0.48-2.299-1.042-2.957-2.25
					c-0.861-1.58-0.359-4.179,1.93-3.272c1.431,0.566,2.531,2.236,3.335,3.944c0.105,3.669,0.077,7.331-0.081,10.957
					c-0.009,0.201-0.024,0.401-0.034,0.603c-0.474-1.219-1.143-2.362-1.982-3.388c-0.761-0.929-3.38-3.934-4.688-2.191
					c-1.093,1.457,0.578,4.389,1.407,5.6c1.062,1.551,2.99,3.508,4.996,3.848c-0.272,3.032-0.686,6.039-1.249,9.001
					c-0.131-0.818-0.37-1.604-0.799-2.302c-0.941-1.532-2.915-2.437-4.595-1.536c-3.394,1.819-1.321,9.436,2.115,7.52
					c0.327-0.183,0.302-0.807-0.113-0.864c-3.799-0.526-2.657-7.239,0.631-5.361c2.185,1.249,2.012,4.934,1.705,7.339
					c-0.956,3.828-2.189,7.548-3.683,11.128c0.054-1.347-0.093-2.703-0.465-4.012c-0.395-1.386-1.309-4.485-3.25-4.259
					c-1.896,0.221-1.927,3.579-1.894,4.936c0.071,2.826,1.192,5.464,3.105,7.522c0.088,0.094,0.182,0.156,0.277,0.199
					c-0.007,0.109,0.011,0.211,0.063,0.299c-1.415,2.793-3.022,5.469-4.814,8.012c0.304-1.398,0.339-2.77-0.107-3.932
					c-0.816-2.129-3.364-2.941-5.007-1.228c-1.587,1.652-2.309,5.185-0.501,6.918c1.16,1.113,3.913,0.565,2.729-1.258
					c-0.329-0.506-1.046-0.281-1.092,0.295c-0.834-0.262-1.23-0.754-1.189-1.473c-0.078-0.344-0.068-0.684,0.03-1.023
					c0.074-0.598,0.24-1.674,0.749-2.088c0.71-0.246,1.419-0.49,2.129-0.736c0.368,0.541,0.735,1.082,1.103,1.623
					c0.263,0.713,0.036,1.826-0.083,2.547c-0.173,1.057-0.451,2.07-0.78,3.066c-2.401,3.033-5.122,5.822-8.139,8.348
					c0.706-1.613,1.128-3.338,1.2-5.152c0.049-1.25,0.167-4.361-1.953-3.812c-1.855,0.48-2.979,3.4-3.271,5.059
					c-0.337,1.924-0.09,4.525,1.306,6.043c-1.886,1.391-3.89,2.674-5.995,3.855c0.896-1.268,1.695-2.916,1.631-4.334
					c-0.066-1.451-1.403-2.346-2.773-2.291c-1.626,0.064-2.796,1.459-3.377,2.859c-0.388,0.934-0.332,3.146,1.263,2.562
					c0.512-0.189,0.676-0.898,0.157-1.201c-0.706-0.412,1.517-3.922,3.111-2.447c1.164,1.078-0.81,4.176-1.376,5.23
					c-0.066,0.125-0.057,0.252-0.009,0.363c-1.251,0.656-2.527,1.289-3.858,1.865C398.21,285.99,398.554,286.736,399.024,286.598z
					 M435.447,226.544c-1.003-0.557-2.021-1.03-2.882-1.965c-0.547-0.595-1.02-1.263-1.394-1.979
					c-0.138-0.265-1.085-2.188-0.819-2.478c0.739-0.808,3.538,2.976,3.831,3.456C434.758,224.517,435.151,225.513,435.447,226.544z
					 M410.493,146.94c-0.747-0.407-1.585-0.682-2.278-1.221c-0.581-0.451-1.073-0.979-1.51-1.555
					C408.339,144.403,409.739,145.431,410.493,146.94z M414.602,153.089c-1.345,1.14-3.009,1.782-4.84,1.285
					c-1.007-0.273-0.668-0.657,0.06-1.132c0.456-0.297,1.141-0.487,1.679-0.602c0.945-0.199,1.812-0.093,2.71,0.031
					C414.344,152.809,414.47,152.952,414.602,153.089z M425.845,163.492c0.004-0.02,0.013-0.038,0.015-0.061
					c0.111-1.358-0.223-2.714-0.12-4.089c0.085-1.132,0.289-3.458,1.425-4.273C428.428,158.028,427.694,160.92,425.845,163.492z
					 M426.413,170.008c-1.336,0.021-2.667-0.01-3.992-0.218c-0.639-0.1-2.581-0.244-2.958-0.863
					c-1.319-2.164,3.166-1.455,3.767-1.293c0.849,0.229,1.651,0.585,2.449,0.95C425.927,169.057,426.175,169.531,426.413,170.008z
					 M434.438,196.148c-1.172-0.699-2.626-0.951-3.78-1.785c-0.653-0.472-1.256-1.035-1.782-1.646
					c-0.509-0.592-1.338-1.549-0.042-1.306c1.492,0.28,3.175,1.769,4.175,2.823C433.573,194.83,434.035,195.47,434.438,196.148z
					 M436.185,189.075c0.014-1.039,0.126-2.067,0.398-3.089c0.197-0.741,1.859-5.102,2.626-2.672
					c0.325,1.027-0.692,2.831-1.222,3.693C437.496,187.807,436.877,188.476,436.185,189.075z M437.896,200.956
					c0.248-1.243,0.311-2.505,0.702-3.733c0.216-0.683,0.421-1.466,0.842-2.046c0.557-0.765,2.582-2.71,2.21,0.232
					c-0.153,1.212-1.328,2.768-2.042,3.699C439.093,199.784,438.51,200.383,437.896,200.956z M438.845,221.14
					c0.598-2.658,2.245-4.835,4.832-5.772C444.023,217.271,440.886,219.626,438.845,221.14z M438.801,233.186
					c0.479-0.645,0.959-1.29,1.528-1.87c0.728-0.743,2.371-2.267,3.557-1.994c0.5-0.15,0.518,0.053,0.054,0.608
					c-0.111,0.128-0.223,0.257-0.334,0.386c-0.214,0.257-0.474,0.496-0.724,0.719c-0.582,0.519-1.234,0.971-1.924,1.336
					C440.26,232.742,439.54,232.993,438.801,233.186z M430.077,257.637c0.152-0.328,0.3-0.66,0.447-0.99
					c0.452-0.438,0.939-0.838,1.489-1.178c0.828-0.514,2.306-1.379,3.345-1.121c1.255,0.85,1.297,1.553,0.124,2.104
					c-0.27,0.119-0.54,0.238-0.811,0.357c-0.692,0.264-1.424,0.447-2.151,0.59C431.707,257.555,430.891,257.586,430.077,257.637z
					 M428.043,255.973c-1.055-1.283-1.811-2.68-2.154-4.349c-0.165-0.804-0.569-4.825,0.57-4.619c1.422,0.256,1.923,4.49,1.97,5.614
					C428.478,253.781,428.312,254.883,428.043,255.973z M423.869,268.375c0.122-0.172,0.241-0.346,0.362-0.518
					c1.08-0.76,2.139-1.465,3.383-1.934c0.545-0.205,1.112-0.377,1.681-0.504c0.507-0.117,1.02-0.195,1.54-0.234
					c0.119,0.508,0.237,1.014,0.355,1.52c-0.096,0.221-1.356,0.678-1.542,0.76c-0.711,0.312-1.455,0.613-2.205,0.824
					C426.173,268.643,425.062,268.656,423.869,268.375z M409.949,274.701c0.005-0.932,0.458-4.164,1.679-4.535
					c1.546-0.471,0.576,4.598,0.494,4.949c-0.265,1.127-0.673,2.176-1.185,3.184C410.444,277.133,409.941,276.088,409.949,274.701z
					 M407.939,283.348c1.433,0.039,2.824-0.133,4.269,0.09c0.291,0.045,3.211,0.551,2.856,1.131
					c-0.313,0.512-3.885-0.191-4.227-0.266C409.83,284.086,408.879,283.74,407.939,283.348z"/>
				<!-- Right logo end -->

			</g>
		 </g>
	</g>
</g>
<g>
	 <path  d="m270.547,304.637l0,11.092l-2.092,0l0,-11.092l-3.419,0l0,-1.775l8.912,0l0,1.775l-3.401,0z" fill="#353A42"/>
   <path  d="m293.499,309.321c0,0.914 -0.171,1.778 -0.514,2.593c-0.343,0.814 -0.842,1.541 -1.499,2.18c-0.662,0.639 -1.409,1.128 -2.241,1.468c-0.832,0.34 -1.705,0.51 -2.619,0.51c-0.926,0 -1.809,-0.171 -2.65,-0.515c-0.841,-0.342 -1.583,-0.83 -2.228,-1.463c-0.656,-0.639 -1.154,-1.362 -1.494,-2.171c-0.34,-0.809 -0.51,-1.676 -0.51,-2.602c0,-0.92 0.17,-1.787 0.51,-2.602c0.34,-0.814 0.838,-1.544 1.494,-2.188c0.656,-0.639 1.4,-1.125 2.233,-1.459c0.832,-0.334 1.714,-0.501 2.645,-0.501c0.926,0 1.803,0.167 2.632,0.501c0.829,0.334 1.572,0.82 2.228,1.459c0.656,0.65 1.156,1.385 1.499,2.201c0.342,0.819 0.514,1.681 0.514,2.589zm-2.18,0c0,-0.65 -0.119,-1.269 -0.356,-1.854c-0.237,-0.586 -0.579,-1.107 -1.024,-1.564c-0.434,-0.451 -0.936,-0.798 -1.507,-1.041c-0.571,-0.243 -1.173,-0.365 -1.806,-0.365c-0.633,0 -1.235,0.12 -1.806,0.36c-0.571,0.24 -1.08,0.589 -1.525,1.046c-0.445,0.451 -0.785,0.97 -1.02,1.556c-0.234,0.586 -0.352,1.207 -0.352,1.863c0,0.65 0.117,1.266 0.352,1.846c0.234,0.58 0.574,1.099 1.02,1.556c0.445,0.457 0.952,0.806 1.52,1.046c0.568,0.24 1.172,0.36 1.811,0.36c0.627,0 1.223,-0.12 1.788,-0.36c0.565,-0.24 1.074,-0.589 1.525,-1.046c0.445,-0.457 0.787,-0.977 1.024,-1.561c0.237,-0.583 0.356,-1.197 0.356,-1.842z" fill="#353A42"/>
   <path  d="m301.298,315.728l0,-13.377l8.174,7.866c0.223,0.223 0.448,0.46 0.677,0.712c0.229,0.252 0.469,0.536 0.721,0.853l0,-8.921l1.934,0l0,13.368l-8.341,-8.007c-0.223,-0.217 -0.438,-0.445 -0.646,-0.686c-0.208,-0.24 -0.406,-0.492 -0.593,-0.756l0,8.947l-1.926,0l0,0.001z" fill="#353A42"/>
   <path  d="m321.191,315.728l0,-12.867l2.092,0l0,12.867l-2.092,0z" fill="#353A42"/>
   <path  d="m353.015,309.374c-0.023,-0.1 -0.061,-0.375 -0.114,-0.826c-0.047,-0.375 -0.088,-0.686 -0.123,-0.932c-0.053,0.293 -0.127,0.586 -0.224,0.879c-0.097,0.293 -0.218,0.592 -0.365,0.897l-3.366,6.855l-3.366,-6.996c-0.141,-0.287 -0.262,-0.566 -0.365,-0.835c-0.103,-0.269 -0.192,-0.536 -0.268,-0.8c-0.006,0.27 -0.028,0.553 -0.066,0.849c-0.038,0.296 -0.095,0.604 -0.171,0.927l-1.38,6.337l-1.925,0l3.041,-13.412l3.797,8.121c0.059,0.129 0.148,0.343 0.268,0.642c0.12,0.299 0.265,0.668 0.435,1.107c0.123,-0.369 0.316,-0.838 0.58,-1.406c0.07,-0.152 0.123,-0.27 0.158,-0.352l3.709,-8.112l3.111,13.412l-1.942,0l-1.424,-6.355z" fill="#353A42"/>
   <path  d="m371.95,315.728l-1.459,-3.313l-5.098,0l-1.494,3.313l-2.197,0l6.232,-13.377l6.223,13.377l-2.207,0zm-5.784,-5.053l3.586,0l-1.318,-2.936c-0.076,-0.188 -0.155,-0.402 -0.237,-0.645c-0.082,-0.243 -0.164,-0.515 -0.246,-0.814c-0.07,0.281 -0.145,0.544 -0.224,0.786c-0.079,0.244 -0.16,0.468 -0.242,0.673l-1.319,2.936z" fill="#353A42"/>
   <path  d="m382.728,309.972l0,5.757l-1.96,0l0,-12.867l2.918,0c0.855,0 1.519,0.056 1.991,0.167s0.874,0.296 1.208,0.554c0.398,0.311 0.706,0.712 0.923,1.204c0.217,0.492 0.325,1.031 0.325,1.617c0,1.031 -0.249,1.839 -0.747,2.421c-0.498,0.584 -1.233,0.934 -2.206,1.051l4.43,5.853l-2.364,0l-4.28,-5.757l-0.238,0zm0.132,-1.626l0.378,0c1.107,0 1.843,-0.129 2.206,-0.387c0.363,-0.258 0.545,-0.715 0.545,-1.371c0,-0.709 -0.195,-1.209 -0.584,-1.498c-0.39,-0.291 -1.112,-0.436 -2.167,-0.436l-0.378,0l0,3.692z" fill="#353A42"/>
   <path  d="m396.285,315.728l0,-12.867l2.092,0l0,12.867l-2.092,0z" fill="#353A42"/>
   <path  d="m406.783,315.728l0,-12.867l7.181,0l0,1.775l-5.089,0l0,3.226l5.089,0l0,1.837l-5.089,0l0,4.157l5.089,0l0,1.872l-7.181,0z" fill="#353A42"/>
</g>
</svg>
